<svg height="511pt" viewBox="0 -13 511.54875 511" width="511pt" xmlns="http://www.w3.org/2000/svg"><path d="m468.183594 486.222656h-398.8125c-4.792969 0-8.675782-3.886718-8.675782-8.675781 0-4.792969 3.882813-8.679687 8.675782-8.679687h398.8125c4.792968 0 8.679687 3.886718 8.679687 8.679687 0 4.789063-3.886719 8.675781-8.679687 8.675781zm0 0" fill="#e4c05c"/><path d="m502.871094 486.222656h-8.679688c-4.792968 0-8.675781-3.886718-8.675781-8.675781 0-4.792969 3.882813-8.679687 8.675781-8.679687h8.679688c4.792968 0 8.675781 3.886718 8.675781 8.679687 0 4.789063-3.882813 8.675781-8.675781 8.675781zm0 0" fill="#e4c05c"/><path d="m208.261719 390.765625c-3.1875-.007813-6.113281-1.757813-7.625-4.5625-1.511719-2.808594-1.359375-6.214844.386719-8.878906l135.8125-206.441407c1.679687-2.644531 4.65625-4.179687 7.789062-4.011718 3.128906.167968 5.925781 2.007812 7.3125 4.816406 1.390625 2.8125 1.15625 6.152344-.609375 8.742188l-135.8125 206.421874c-1.601563 2.441407-4.328125 3.914063-7.253906 3.914063zm0 0" fill="#90bae1"/><path d="m436.925781 32.105469c-.585937-.378907-1.195312-.726563-1.820312-1.042969-47.988281-29.851562-121.839844-.171875-166.097657 66.996094l-36.1875-23.867188c21.476563-32.660156 55.050782-55.445312 93.332032-63.339844 38.28125-7.894531 78.132812-.246093 110.773437 21.253907zm0 0" fill="#ff5364"/><path d="m479.015625 236.472656-36.1875-23.867187c43.304687-65.777344 42.175781-143.53125-1.300781-177.203125 64.535156 46.035156 81.097656 134.871094 37.488281 201.070312zm0 0" fill="#ff5364"/><path d="m435.105469 31.0625c-21.261719-9.457031-71.941407 34.367188-115.417969 100.40625l-50.679688-33.410156c44.257813-67.167969 118.109376-96.847656 166.097657-66.996094zm0 0" fill="#f3d55b"/><path d="m442.828125 212.605469-50.679687-33.410157c44.691406-68.035156 64.824218-133.898437 44.777343-147.089843 1.589844 1.019531 3.125 2.121093 4.601563 3.296875 43.476562 33.671875 44.605468 111.425781 1.300781 177.203125zm0 0" fill="#f3d55b"/><path d="m392.148438 179.195312-72.460938-47.726562c43.476562-66.039062 94.15625-109.863281 115.417969-100.40625.625.316406 1.234375.664062 1.820312 1.042969 20.046875 13.191406-.085937 79.054687-44.777343 147.089843zm0 0" fill="#ff5364"/><path d="m463.847656 17.628906c0 9.582032-7.769531 17.347656-17.347656 17.347656-9.582031 0-17.347656-7.765624-17.347656-17.347656 0-9.578125 7.765625-17.347656 17.347656-17.347656 9.578125 0 17.347656 7.769531 17.347656 17.347656zm0 0" fill="#e64c3c"/><path d="m269.007812 98.058594-2.429687 3.644531c-.085937.171875-.261719.347656-.261719.519531l-4.425781 6.683594c-4.140625 6.722656-11.605469 10.667969-19.496094 10.292969-7.886719-.371094-14.949219-5-18.4375-12.085938-3.488281-7.085937-2.851562-15.507812 1.660157-21.984375l7.203124-10.9375zm0 0" fill="#df4d60"/><path d="m319.6875 131.46875v.085938l-2.34375 3.558593c-9.339844 13.425781-27.636719 17.039063-41.382812 8.179688-13.75-8.859375-18.011719-27.015625-9.644532-41.070313 0-.171875.175782-.347656.261719-.519531l2.429687-3.644531zm0 0" fill="#f0c419"/><path d="m479.015625 236.472656-7.203125 10.847656c-4.09375 6.847657-11.617188 10.894532-19.589844 10.539063-7.972656-.359375-15.101562-5.0625-18.570312-12.246094-3.46875-7.1875-2.710938-15.699219 1.972656-22.160156l4.773438-7.203125 2.429687-3.644531zm0 0" fill="#df4d60"/><path d="m442.828125 212.605469-2.429687 3.644531c-9.5 13.273438-27.789063 16.667969-41.417969 7.683594-13.625-8.984375-17.714844-27.132813-9.261719-41.09375l2.429688-3.644532zm0 0" fill="#f0c419"/><path d="m392.148438 179.195312c-10.574219 15.964844-32.058594 20.382813-48.074219 9.894532l-14.492188-9.546875c-15.953125-10.539063-20.375-31.996094-9.894531-47.988281v-.085938zm0 0" fill="#df4d60"/><path d="m329.816406 330.019531-15.273437 29.972657c-1.484375 2.902343-4.464844 4.730468-7.726563 4.730468h-285.128906c-11.480469-.03125-20.984375 8.914063-21.6445312 20.375-.1054688 6.136719 2.2890622 12.054688 6.6289062 16.394532 4.339844 4.339843 10.257813 6.734374 16.394531 6.628906h308.527344c3.175781 0 6.101562-1.738282 7.621094-4.53125l21.121094-38.859375 18.882812-34.710938 18.8125-34.710937 1.996094-3.644532c1.6875-3.183593 2.582031-6.726562 2.605468-10.328124-.003906-9.925782-6.746093-18.582032-16.367187-21.019532-9.625-2.4375-19.671875 1.964844-24.402344 10.691406l-13.148437 24.300782zm0 0" fill="#cc66a1"/><path d="m95.371094 442.832031c0 19.152344-15.527344 34.679688-34.675782 34.679688-19.152343 0-34.679687-15.527344-34.679687-34.679688 0-19.152343 15.527344-34.675781 34.679687-34.675781 19.148438 0 34.675782 15.523438 34.675782 34.675781zm0 0" fill="#2c3e50"/><path d="m60.738281 486.222656c-23.964843 0-43.390625-19.425781-43.390625-43.390625 0-23.960937 19.425782-43.386719 43.390625-43.386719 23.960938 0 43.386719 19.425782 43.386719 43.386719 0 23.964844-19.425781 43.390625-43.386719 43.390625zm0-69.421875c-14.378906 0-26.035156 11.65625-26.035156 26.03125 0 14.378907 11.65625 26.035157 26.035156 26.035157 14.375 0 26.03125-11.65625 26.03125-26.035157 0-14.375-11.65625-26.03125-26.03125-26.03125zm0 0" fill="#8697cb"/><path d="m69.371094 442.832031c0 4.792969-3.882813 8.679688-8.675782 8.679688-4.792968 0-8.679687-3.886719-8.679687-8.679688s3.886719-8.675781 8.679687-8.675781c4.792969 0 8.675782 3.882812 8.675782 8.675781zm0 0" fill="#d1d4d1"/><path d="m286.121094 408.121094 17.339844 60.746094h26.007812v-60.746094" fill="#894b9d"/><path d="m242.785156 295.316406h156.027344c9.585938 0 17.355469 7.769532 17.355469 17.355469s-7.769531 17.355469-17.355469 17.355469h-156.027344c-9.585937 0-17.359375-7.769532-17.359375-17.355469s7.773438-17.355469 17.359375-17.355469zm0 0" fill="#894b9d"/><path d="m268.78125 373.410156c-4.792969 0-8.675781-3.886718-8.675781-8.679687v-34.710938c0-4.792969 3.882812-8.679687 8.675781-8.679687s8.679688 3.886718 8.679688 8.679687v34.710938c0 2.300781-.914063 4.511719-2.542969 6.136719-1.625 1.628906-3.832031 2.542968-6.136719 2.542968zm0 0" fill="#ff5364"/><path d="m121.386719 61.019531c0-33.546875-27.171875-60.746093-60.691407-60.746093-33.523437 0-60.695312 27.199218-60.695312 60.746093 0 33.550781 27.171875 60.746094 60.695312 60.746094 33.519532 0 60.691407-27.195313 60.691407-60.746094zm0 0" fill="#f0c419"/><g fill="#f29c1f"><path d="m156.8125 109.546875c-1.140625-.003906-2.269531-.226563-3.324219-.660156l-8.003906-3.324219c-4.425781-1.832031-6.527344-6.910156-4.691406-11.339844 1.832031-4.429687 6.910156-6.53125 11.339843-4.695312l8.011719 3.324218c3.828125 1.582032 6 5.652344 5.191407 9.714844-.8125 4.066406-4.382813 6.988282-8.523438 6.980469zm0 0"/><path d="m20.878906 165.902344c-2.898437 0-5.601562-1.445313-7.210937-3.855469-1.613281-2.40625-1.914063-5.460937-.808594-8.136719l3.324219-8.019531c1.109375-2.972656 3.753906-5.101563 6.894531-5.554687 3.140625-.453126 6.277344.84375 8.179687 3.382812 1.902344 2.539062 2.269532 5.914062.953126 8.800781l-3.3125 8.019531c-1.34375 3.246094-4.507813 5.363282-8.019532 5.363282zm0 0"/><path d="m100.515625 165.902344c-3.511719 0-6.675781-2.117188-8.015625-5.363282l-3.324219-8.019531c-1.25-2.875-.847656-6.203125 1.046875-8.699219 1.898438-2.5 4.996094-3.777343 8.101563-3.351562 3.105469.429688 5.738281 2.503906 6.886719 5.421875l3.316406 8.019531c1.832031 4.425782-.269532 9.496094-4.695313 11.332032-1.050781.433593-2.179687.65625-3.316406.660156zm0 0"/><path d="m148.808594 33.164062c-4.140625.003907-7.707032-2.921874-8.515625-6.984374-.808594-4.0625 1.367187-8.128907 5.191406-9.710938l8.011719-3.316406c2.878906-1.265625 6.214844-.875 8.726562 1.019531 2.507813 1.894531 3.796875 5 3.363282 8.113281-.429688 3.117188-2.511719 5.753906-5.441407 6.894532l-8.011719 3.324218c-1.054687.4375-2.183593.660156-3.324218.660156zm0 0"/></g></svg>